<?xml version="1.0" encoding="UTF-8"?>
<svg width="752pt" height="752pt" version="1.1" viewBox="0 0 752 752" xmlns="http://www.w3.org/2000/svg">
 <defs>
  <clipPath id="a">
   <path d="m139.21 139.21h473.58v473.58h-473.58z"/>
  </clipPath>
 </defs>
 <g clip-path="url(#a)">
  <path d="m252.64 256.89 4.2422-4.2422c17.586-17.574 46.078-17.574 63.664 0l55.449 55.445 55.445-55.453c17.586-17.574 46.098-17.574 63.664 0l4.2422 4.2422c17.586 17.586 17.586 46.09 0 63.672l-55.438 55.457 55.445 55.441c17.586 17.578 17.586 46.086 0 63.668l-4.2422 4.2422c-17.566 17.578-46.078 17.578-63.664 0l-55.453-55.441-55.445 55.441c-17.586 17.578-46.078 17.578-63.664 0l-4.2422-4.2422c-17.586-17.586-17.586-46.09 0-63.668l55.441-55.441-55.445-55.449c-17.586-17.582-17.586-46.09 0-63.672zm123.36 355.91c-130.77 0-236.79-106.02-236.79-236.79 0-130.78 106.02-236.8 236.79-236.8s236.79 106.02 236.79 236.8c0.003907 130.77-106.01 236.79-236.79 236.79z" fill-rule="evenodd"/>
 </g>
</svg>
